<svg width="66" height="101" viewBox="0 0 66 101" fill="none" xmlns="http://www.w3.org/2000/svg">
<path d="M33.0071 75.7879C44.1153 75.7879 53.9012 73.2175 59.6371 69.3152C55.0417 72.4417 47.8468 74.7133 39.4549 75.4931C54.0331 74.1386 64.9995 68.2821 65 61.2627V85.4232L65.0002 85.4742C65.0002 93.4967 50.6766 100 33.0075 100C15.3384 100 1.01484 93.4967 1.01484 85.4742L1.01465 85.4727V61.2627C1.01479 63.0928 1.76027 64.8438 3.12083 66.4566M33.0071 75.7879C19.3693 75.7879 7.72452 71.9135 3.12083 66.4566M33.0071 75.7879C50.6761 75.7879 65 69.2838 65 61.2613C65 53.2389 50.6764 46.7354 33.0073 46.7354C15.3383 46.7354 1.01465 53.2389 1.01465 61.2613C1.01465 63.0916 1.76015 64.8437 3.12083 66.4566M33.0071 75.7879C47.2255 75.7879 59.2776 71.5757 63.4427 65.7503C58.839 60.2934 47.1942 56.419 33.5564 56.419C19.338 56.419 7.28588 60.6313 3.12083 66.4566M33.0071 75.7879C20.3076 75.7879 9.33641 72.4275 4.16947 67.559M3.12083 66.4566C3.12082 66.4566 3.12084 66.4566 3.12083 66.4566ZM3.46359 27.3789L1.07617 60.2598C1.02567 60.5935 1 60.9304 1 61.2699C1 69.2907 15.3205 75.7928 32.9858 75.7928C50.6511 75.7928 64.9717 69.2907 64.9717 61.2699V61.2656H64.9748L64.9715 61.2199C64.9693 60.9267 64.948 60.6356 64.9081 60.3467L62.5144 27.3789M4.47564 22.5538L3.47564 27.3427L3.47559 27.3697C3.47559 35.3922 16.6974 41.8957 33.0073 41.8957C49.3172 41.8957 62.539 35.3922 62.539 27.3697L61.539 22.5273M28 91.3522H38C39.6569 91.3522 41 90.0091 41 88.3522V86.3522C41 84.6953 39.6569 83.3522 38 83.3522H28C26.3431 83.3522 25 84.6953 25 86.3522V88.3522C25 90.0091 26.3431 91.3522 28 91.3522Z" stroke="#A5A5A5" stroke-miterlimit="10"/>
<path fill-rule="evenodd" clip-rule="evenodd" d="M33.0068 8C49.3167 8 62.5391 14.5039 62.5391 22.5264C62.5386 30.5487 49.3165 37.0518 33.0068 37.0518C16.6974 37.0516 3.476 30.5486 3.47559 22.5264C3.47559 14.504 16.6971 8.00012 33.0068 8ZM25.8193 24.5508C25.141 23.9798 23.8006 23.9163 22.8252 24.4092C21.8498 24.9021 21.6089 25.7648 22.2871 26.3359L22.2988 26.3457C22.977 26.9169 24.3184 26.9812 25.2939 26.4883C26.2694 25.9954 26.51 25.1327 25.832 24.5615L25.8193 24.5508ZM39.9482 17.4121C39.27 16.8412 37.9295 16.7776 36.9541 17.2705L28.7051 21.4385C27.7296 21.9314 27.4888 22.7941 28.167 23.3652C28.8452 23.9363 30.1856 23.9997 31.1611 23.5068L39.4102 19.3389C40.3857 18.8459 40.6264 17.9833 39.9482 17.4121Z" fill="#FFA742"/>
<path fill-rule="evenodd" clip-rule="evenodd" d="M25.8197 24.5506C25.1414 23.9796 23.801 23.9161 22.8256 24.409C21.8502 24.9019 21.6093 25.7646 22.2875 26.3357L22.2992 26.3455C22.9774 26.9167 24.3188 26.981 25.2943 26.4881C26.2698 25.9952 26.5104 25.1325 25.8324 24.5613L25.8197 24.5506ZM39.9486 17.4119C39.2703 16.841 37.9299 16.7774 36.9545 17.2703L28.7055 21.4383C27.73 21.9312 27.4892 22.7939 28.1674 23.365C28.8456 23.9361 30.186 23.9995 31.1615 23.5066L39.4105 19.3387C40.3861 18.8457 40.6268 17.9831 39.9486 17.4119Z" fill="#090B0E"/>
<path d="M33.0068 8.5C41.1021 8.5 48.407 10.1148 53.6689 12.7031C58.9631 15.3073 62.0391 18.8109 62.0391 22.5264L62.0303 22.874C61.8446 26.4598 58.7968 29.8261 53.668 32.3486C48.406 34.9367 41.1019 36.5518 33.0068 36.5518L32.25 36.5469C24.4571 36.4496 17.443 34.8558 12.3457 32.3486C7.05185 29.7447 3.97579 26.2417 3.97559 22.5264C3.97559 18.8109 7.05165 15.3073 12.3457 12.7031C17.443 10.1958 24.457 8.60215 32.25 8.50488L33.0068 8.5Z" stroke="#A5A5A5"/>
</svg>
