<svg xmlns="http://www.w3.org/2000/svg" width="86" height="100" fill="none">
  <style>
    @keyframes canisterShake {
    0%, 100% { transform: translateX(0); }
    10%, 30%, 50%, 70%, 90% { transform: translateX(-8px); }
    20%, 40%, 60%, 80% { transform: translateX(8px); }
  }
  
  #canister-error-img {
    animation: canisterShake 1.2s ease-in-out;
    transform-origin: center center;
  }
  
  @media (prefers-reduced-motion: reduce) {
    #canister-error-img {
      animation: none;
    }
  }
  </style>
  <g id="canister-error-img">
    <mask id="a" width="18" height="10" x="34" y="76" fill="#000" maskUnits="userSpaceOnUse">
      <path fill="#fff" d="M34 76h18v10H34z"/>
      <path d="M35 80.06A3.07 3.07 0 0 1 38 77l10 .07c1.66 0 3 1.32 3 2.96V82a3 3 0 0 1-3 3h-9.99A3.02 3.02 0 0 1 35 82v-1.94Z"/>
    </mask>
    <path stroke="#474747" stroke-miterlimit="10" stroke-width="2" d="M35 80.06A3.07 3.07 0 0 1 38 77l10 .07c1.66 0 3 1.32 3 2.96V82a3 3 0 0 1-3 3h-9.99A3.02 3.02 0 0 1 35 82v-1.94Z" mask="url(#a)"/>
    <path stroke="#474747" d="M43.01 41.5c8.38 0 15.94 1.56 21.38 4.05 5.5 2.52 8.65 5.9 8.65 9.45 0 3.55-3.16 6.93-8.65 9.45-5.44 2.5-13 4.05-21.38 4.05-8.37 0-15.93-1.56-21.37-4.05-5.5-2.52-8.66-5.9-8.66-9.45 0-3.55 3.17-6.93 8.66-9.45 5.44-2.5 13-4.05 21.37-4.05Z"/>
    <path stroke="#474747" d="M71.59 59.88C66.89 54.95 56 51.5 43.35 51.5 30.58 51.5 19.64 55 15 60M72.81 26c0 6.64-13.35 12-29.8 12-16.44 0-29.8-5.37-29.8-12"/>
    <path stroke="#474747" d="m13.5 17-2 63.59c0 7.68 14.61 13.91 32.01 13.91 17.41 0 31.02-6.23 31.02-13.91l-2-63.59"/>
    <path fill="#FF3F68" stroke="#474747" stroke-miterlimit="10" d="M43 2.5c8.23 0 15.65 1.67 21 4.34 5.37 2.69 8.5 6.3 8.5 10.16 0 3.85-3.13 7.47-8.5 10.16-5.35 2.67-12.77 4.34-21 4.34-8.22 0-15.64-1.67-20.98-4.34-5.38-2.69-8.51-6.3-8.51-10.16 0-3.85 3.13-7.47 8.5-10.16 5.35-2.67 12.77-4.34 21-4.34Z"/>
    <path fill="#fff" fill-rule="evenodd" d="M47.17 11.25c.17-.67-.68-1.29-1.88-1.4-1.22-.1-2.34.36-2.51 1.02l-.9 3.46-6.3-.54c-1.21-.1-2.34.35-2.5 1.01-.1.33.08.65.42.9.34.26.85.44 1.46.5l6.3.54-.9 3.46c-.08.33.09.65.43.9.34.25.85.43 1.46.49 1.21.1 2.34-.35 2.5-1.02l.9-3.45 6.31.54c1.21.1 2.34-.35 2.5-1.01.18-.67-.66-1.3-1.88-1.4l-6.3-.54.9-3.46Z" clip-rule="evenodd"/>
  </g>
</svg>
