<svg width="86" height="100" viewBox="0 0 86 100" fill="none" xmlns="http://www.w3.org/2000/svg">
<style>
  @keyframes canisterShake {
    0%, 100% { transform: translateX(0); }
    10%, 30%, 50%, 70%, 90% { transform: translateX(-8px); }
    20%, 40%, 60%, 80% { transform: translateX(8px); }
  }
  
  #canister-error-img {
    animation: canisterShake 1.2s ease-in-out;
    transform-origin: center center;
  }
  
  @media (prefers-reduced-motion: reduce) {
    #canister-error-img {
      animation: none;
    }
  }
</style>
<g id="canister-error-img">
<path d="M43.0071 72.5249C54.1153 72.5249 63.9012 69.9266 69.6371 65.9818C65.0417 69.1423 57.8468 71.4386 49.4549 72.2268C64.0331 70.8577 74.9995 64.9375 75 57.8418V82.2649L75.0002 82.3165C75.0002 90.4262 60.6766 97.0004 43.0075 97.0004C25.3384 97.0004 11.0148 90.4262 11.0148 82.3165L11.0146 82.3149V57.8418C11.0148 59.6918 11.7603 61.4619 13.1208 63.0922M43.0071 72.5249C29.3693 72.5249 17.7245 68.6084 13.1208 63.0922M43.0071 72.5249C60.6761 72.5249 75 65.9498 75 57.8401C75 49.7304 60.6764 43.1562 43.0073 43.1562C25.3383 43.1562 11.0146 49.7304 11.0146 57.8401C11.0146 59.6903 11.7602 61.4605 13.1209 63.091M43.0071 72.5249C57.2255 72.5249 69.2776 68.2666 73.4427 62.3779M43.0071 72.5249C30.3076 72.5249 19.3364 69.1276 14.1695 64.2062M13.1208 63.0922C13.1208 63.0922 13.1208 63.0922 13.1208 63.0922ZM13.1209 63.091C17.2859 57.2023 29.338 52.9451 43.5564 52.9451C57.1942 52.9451 68.839 56.8617 73.4427 62.3779M13.1209 63.091C17.7245 68.6072 29.3695 72.5239 43.0073 72.5239C57.2258 72.5239 69.2776 68.2666 73.4427 62.3779M13.4636 23.5895L11.0762 56.8278C11.0257 57.1652 11 57.5057 11 57.849C11 65.9569 25.3205 72.5297 42.9858 72.5297C60.6511 72.5297 74.9717 65.9569 74.9717 57.849V57.8446H74.9748L74.9715 57.7984C74.9693 57.502 74.948 57.2077 74.9081 56.9157L72.5144 23.5895M14.4756 18.7113L13.4756 23.5522L13.4756 23.5796C13.4756 31.6893 26.6974 38.2635 43.0073 38.2635C59.3172 38.2635 72.539 31.6893 72.539 23.5796L71.539 18.6846M38 89H48C49.6569 89 51 87.6569 51 86V84C51 82.3431 49.6569 81 48 81H38C36.3431 81 35 82.3431 35 84V86C35 87.6569 36.3431 89 38 89Z" stroke="#A5A5A5" stroke-miterlimit="10"/>
<path fill-rule="evenodd" clip-rule="evenodd" d="M43.0068 4C59.3165 4 72.5388 10.574 72.5391 18.6836C72.5391 26.7933 59.3167 33.3682 43.0068 33.3682C26.6971 33.368 13.4756 26.7932 13.4756 18.6836C13.4759 10.5741 26.6973 4.00012 43.0068 4Z" fill="#FF3F68"/>
<path d="M43.0068 4.5C51.1011 4.5 58.4046 6.13214 63.666 8.74805C68.9582 11.3793 72.0389 14.9217 72.0391 18.6836C72.0391 22.4455 68.9589 25.9876 63.667 28.6191C58.4055 31.2354 51.1014 32.8682 43.0068 32.8682C34.9124 32.8681 27.6089 31.2354 22.3477 28.6191C17.0557 25.9876 13.9756 22.4455 13.9756 18.6836L13.9844 18.332C14.17 14.7015 17.2208 11.2972 22.3477 8.74805C27.4444 6.21382 34.4578 4.6032 42.25 4.50488L43.0068 4.5Z" stroke="#A5A5A5"/>
<path fill-rule="evenodd" clip-rule="evenodd" d="M46.492 13.1128C46.664 12.448 45.8164 11.8263 44.6069 11.7199C43.3949 11.6165 42.2704 12.0712 42.0988 12.7341L41.2032 16.1947L34.9035 15.6498C33.6898 15.5451 32.5649 15.9999 32.3968 16.6631C32.3089 16.9963 32.4764 17.3165 32.8174 17.5685C33.16 17.8216 33.6717 18.0033 34.2785 18.0556L40.5804 18.5994L39.6868 22.0588C39.6008 22.3912 39.7684 22.7117 40.1094 22.9637C40.4505 23.2158 40.9658 23.3977 41.5706 23.4509C42.7842 23.5555 43.9065 23.1016 44.0786 22.4367L44.9722 18.9789L51.2816 19.5238C52.4931 19.6293 53.6181 19.1745 53.7882 18.5105C53.9644 17.844 53.1194 17.2223 51.9058 17.1176L45.595 16.5727L46.492 13.1128Z" fill="#090B0E"/>
</g>
</svg>
