<svg width="110" height="102" viewBox="0 0 110 102" fill="none" xmlns="http://www.w3.org/2000/svg">
    <style>
        @keyframes float {
        0%, 100% {
            transform: translateY(0px);
        }
        50% {
            transform: translateY(-4px);
        }
        }
        #cub-mini {
        animation: float 3s ease-in-out infinite;
        transform-origin: center;
        }
    </style>
<g id="generic-error-dark">
<g id="cub">
<path id="Vector" d="M55.5 44.9311L73.5 54.4311L55.5 64.9311V44.9311L37.5 34.5388L55.5 24.1465V44.9311Z" fill="#FF3F68"/>
<path id="Vector_2" d="M37.5 95.4307V75.4307M37.5 95.4307L19.5 84.9307M37.5 95.4307L55.5 84.9308M37.5 75.4307V55.4307M37.5 75.4307L19.5 64.9308M37.5 75.4307L55.5 64.9308M37.5 55.4307L19.5 44.9307M37.5 55.4307L55.5 44.9308M1.5 34.4307V54.4307M1.5 34.4307L19.5 44.9307M1.5 34.4307L19.5 24.1462M1.5 54.4307V74.4307L19.5 84.9307M1.5 54.4307L19.5 64.9308M19.5 64.9308V44.9307M19.5 64.9308V84.9307M19.5 44.9307L55.5 24.1462M55.5 44.9308L73.5 54.4308M55.5 44.9308V64.9308M55.5 44.9308V24.1462M55.5 44.9308L19.5 24.1462M73.5 54.4308V74.4308L55.5 84.9308M73.5 54.4308L55.5 64.9308M55.5 64.9308V84.9308M19.5 24.1462L37.5 14.4307L55.5 24.1462" stroke="#A5A5A5"/>
</g>
<g id="cub-mini">
<path id="Vector 21" d="M95.7158 48.8643L87.3326 29.8699L68.0242 27.3711L76.4073 46.3655L95.7158 48.8643Z" fill="#FF3F68"/>
<path id="Vector 20" d="M87.1189 29.4022L95.5021 48.3966M87.1189 29.4022L98.8063 14.6334M87.1189 29.4022L67.8105 26.9033M95.5021 48.3966L107.189 33.6278L98.8063 14.6334M95.5021 48.3966L76.1937 45.8977L67.8105 26.9033M98.8063 14.6334L79.4979 12.1346L67.8105 26.9033" stroke="#A5A5A5"/>
</g>
</g>
</svg>
