<svg xmlns="http://www.w3.org/2000/svg" width="110" height="90" fill="none"><path fill="#FF3F68" d="m67.419 18.552 20.1 3.726 6.949 19.446-20.13-3.76-6.92-19.412Z"/><path stroke="#A5A5A5" stroke-miterlimit="10.433" d="M67.419 18.552 80.685 3l20.09 3.696M67.419 18.552l6.918 19.413 20.131 3.759m-27.05-23.172 20.101 3.726m0 0 13.256-15.582M87.519 22.278l6.949 19.446m6.307-35.028 6.917 19.428-13.224 15.6M38.5 87l18-10.393M38.5 87V66.892M38.5 87 20.32 76.502m36.18.104V56.5m0 20.108 17.417-9.94V46.444M56.5 56.499l-18 10.393m18-10.392-.083-20.453M56.5 56.5l17.417-10.056M38.5 66.892V46.495l-.09-.051m.09 20.448L3 46.396m53.417-10.349L38.41 25.555m18.007 10.492L38.41 46.444m18.007-10.397V15.16m0 20.888 17.5 10.397m-35.507 0L20.32 35.999m18.09-10.444L20.32 36m18.09-10.444L20.993 15.5M38.41 25.555 56.417 15.16M20.32 36 3 26v20.397M20.32 36v40.504m.673-61.003L3 25.888M20.993 15.5 39 5.104l17.417 10.055M20.32 76.503 3 66.503V46.396"/><path fill="#FF3F68" d="m73.801 46.26-17.7 10.227-.017.01V36.01l-17.7-10.4L56.09 15.389l-.007 20.621L73.8 46.26Z"/><path stroke="#A5A5A5" stroke-miterlimit="10.433" d="m56.084 36.01.007-20.621L38.383 25.61l17.7 10.4Zm0 0L73.8 46.26 56.1 56.487l-.017.01V36.01Z"/></svg>