<svg width="66" height="101" viewBox="0 0 66 101" fill="none" xmlns="http://www.w3.org/2000/svg">
<path d="M6.23874 32.4959C3.60273 32.2727 1.78767 28.2909 2.18468 23.6022C2.5817 18.9135 5.04045 15.2935 7.67647 15.5167C7.8416 15.5307 8.00352 15.5594 8.16187 15.6022" stroke="#474747" stroke-miterlimit="10"/>
<path d="M30.5816 94.4392C30.8134 94.5894 31.123 94.5232 31.2731 94.2915C31.4233 94.0597 31.3572 93.7501 31.1254 93.6L30.5816 94.4392ZM20.2635 92.5596L19.8904 92.2268L19.8898 92.2274L20.2635 92.5596ZM19.7235 96.3196L19.2582 96.5025L19.2582 96.5026L19.7235 96.3196ZM19.5338 93.392L19.9964 93.5818L20.3759 92.6566L19.9133 92.4668L19.5338 93.392ZM13.9877 70.1872L13.8556 69.705L13.9877 70.1872ZM40.1917 75.2201L39.7026 75.1161L40.1917 75.2201ZM32.4723 99.6007L32.4007 99.1059L32.4723 99.6007ZM33.5539 98.876L33.1108 98.6443L33.5539 98.876ZM30.8535 94.0196L31.1254 93.6C28.7618 92.0685 26.4549 91.2066 24.5 90.9743C22.5639 90.7443 20.8723 91.1259 19.8904 92.2268L20.2635 92.5596L20.6367 92.8924C21.3048 92.1433 22.5931 91.7548 24.3821 91.9673C26.1522 92.1776 28.3153 92.9707 30.5816 94.4392L30.8535 94.0196ZM20.2635 92.5596L19.8898 92.2274C18.8581 93.3881 18.7453 95.1979 19.2582 96.5025L19.7235 96.3196L20.1889 96.1366C19.7818 95.1013 19.9089 93.7111 20.6372 92.8918L20.2635 92.5596ZM19.7235 96.3196L19.2582 96.5026C19.9042 98.1454 21.6373 99.2691 23.9254 99.8688C26.2324 100.473 29.21 100.578 32.5439 100.096L32.4723 99.6007L32.4007 99.1059C29.1593 99.575 26.3225 99.4632 24.1789 98.9014C22.0165 98.3347 20.6628 97.3419 20.1889 96.1366L19.7235 96.3196ZM33.5539 98.876L33.997 99.1077C34.8728 97.4331 37.1476 91.9354 40.6808 75.3242L40.1917 75.2201L39.7026 75.1161C36.1723 91.7141 33.9195 97.098 33.1108 98.6443L33.5539 98.876ZM39.4181 73.2837L39.6816 72.8587C36.594 70.9441 27.0245 66.0988 13.8556 69.705L13.9877 70.1872L14.1198 70.6695C26.9205 67.164 36.1979 71.8751 39.1546 73.7086L39.4181 73.2837ZM12.6463 71.6866L12.1517 71.6132C11.8473 73.6659 11.37 78.119 12.1084 82.5385C12.8452 86.9489 14.8198 91.4583 19.5338 93.392L19.7235 92.9294L19.9133 92.4668C15.6748 90.7282 13.8091 86.6498 13.0947 82.3737C12.3818 78.1067 12.8421 73.7745 13.1409 71.7599L12.6463 71.6866ZM13.9877 70.1872L13.8556 69.705C12.9639 69.9492 12.2889 70.6885 12.1517 71.6132L12.6463 71.6866L13.1409 71.7599C13.2184 71.2375 13.6005 70.8117 14.1198 70.6695L13.9877 70.1872ZM40.1917 75.2201L40.6808 75.3242C40.8785 74.3946 40.5349 73.3879 39.6816 72.8587L39.4181 73.2837L39.1546 73.7086C39.605 73.9879 39.824 74.5453 39.7026 75.1161L40.1917 75.2201ZM32.4723 99.6007L32.5439 100.096C33.1337 100.01 33.6944 99.6863 33.997 99.1077L33.5539 98.876L33.1108 98.6443C32.9825 98.8897 32.7313 99.058 32.4007 99.1059L32.4723 99.6007Z" fill="#474747"/>
<path d="M24.7336 76.29C22.0036 82.29 21.3236 87.12 21.4736 91.5" stroke="#474747" stroke-miterlimit="10" stroke-linecap="round"/>
<path d="M20.2637 76.0996C20.6537 77.9496 21.3937 79.1496 23.1637 79.8096" stroke="#474747" stroke-miterlimit="10" stroke-linecap="round"/>
<path d="M14.9736 88C17.5136 89.09 20.4836 88.34 21.4736 87" stroke="#474747" stroke-miterlimit="10" stroke-linecap="round"/>
<path d="M37.2135 86.7899C29.9735 81.8699 25.1035 82.3099 22.5835 83.0199C22.4235 83.0699 22.2635 83.1099 22.1035 83.1699" stroke="#474747" stroke-miterlimit="10"/>
<path d="M13.4336 65.3903C21.6336 63.2403 31.9236 62.4103 40.8436 68.4103" stroke="#474747" stroke-miterlimit="10"/>
<path d="M12.4736 74.0003C13.118 65.6135 15.6588 55.1637 18.5567 48.4609" stroke="#474747" stroke-miterlimit="10"/>
<path d="M40.4736 62V62C40.8062 66.3238 40.7326 70.6693 40.2537 74.9793L39.9736 77.5" stroke="#474747" stroke-miterlimit="10"/>
<path d="M36.2637 54.7098C37.7837 52.4598 39.5837 50.6398 41.9737 50.9998C43.1637 51.1798 44.7637 52.2998 46.2137 53.5398C49.9837 56.7498 55.2237 61.2198 54.1637 66.1298C53.9937 66.9298 53.6837 68.3698 52.5537 69.0098C48.5237 71.2998 39.0637 60.6098 38.6037 60.0798" stroke="#474747" stroke-miterlimit="10" stroke-linecap="round"/>
<path d="M39.374 76.9901C39.374 76.9901 42.004 78.6401 43.584 76.8101C45.164 74.9801 46.904 67.3301 46.904 67.3301" stroke="#474747" stroke-miterlimit="10"/>
<path d="M18.4739 48.5C3.54388 58.98 0.213863 64.51 1.14386 66.85C1.78386 68.45 4.17386 69.27 5.82386 69.39C9.04386 69.62 11.9839 67.72 13.9739 64" stroke="#474747" stroke-miterlimit="10"/>
<path d="M8.46387 60.8496C8.79387 61.8796 9.51387 63.5496 11.0939 64.9496C11.5539 65.3496 12.0039 65.6696 12.4339 65.9296" stroke="#474747" stroke-miterlimit="10" stroke-linecap="round"/>
<path d="M22.3242 68.8002V63.9902" stroke="#474747" stroke-miterlimit="10"/>
<path d="M32.0239 64.6602L31.7139 69.7302" stroke="#474747" stroke-miterlimit="10"/>
<path d="M27.9143 62.2998H17.6243C16.8443 62.2998 16.3343 61.6698 16.4743 60.8898L17.3243 56.2098C17.4643 55.4298 18.2143 54.7998 18.9843 54.7998H29.2743C30.0543 54.7998 30.5643 55.4298 30.4243 56.2098L29.5743 60.8898C29.4343 61.6698 28.6843 62.2998 27.9143 62.2998Z" stroke="#474747" stroke-miterlimit="10"/>
<path d="M59.2921 36.285C54.6054 52.399 46.0433 49.9182 34.1435 51C16.7435 52.58 5.31348 41.15 5.31348 26.87C5.31348 12.59 18.2235 1 34.1435 1C47.5204 1 59.097 8.56873 61.2379 19.5" stroke="#474747" stroke-miterlimit="10"/>
<path d="M60.2343 36.4101C62.8798 36.4101 65.0243 32.5956 65.0243 27.8901C65.0243 23.1846 62.8798 19.3701 60.2343 19.3701C57.5889 19.3701 55.4443 23.1846 55.4443 27.8901C55.4443 32.5956 57.5889 36.4101 60.2343 36.4101Z" stroke="#474747" stroke-miterlimit="10"/>
<path fill-rule="evenodd" clip-rule="evenodd" d="M29.1738 4.66016C42.1469 4.66027 52.6641 14.0802 52.6641 25.7002C52.664 37.3202 42.1469 46.7401 29.1738 46.7402C16.2007 46.7402 5.68362 37.3202 5.68359 25.7002C5.68359 14.0801 16.2007 4.66016 29.1738 4.66016ZM23.5039 16.1006C22.8112 15.1646 21.4504 15.0025 20.4648 15.7275C19.4812 16.4578 19.243 17.8099 19.9336 18.7432L23.5391 23.6152L18.417 27.4023C17.4306 28.1323 17.1922 29.4848 17.8857 30.416C18.2316 30.8863 18.7423 31.16 19.292 31.2275C19.8443 31.2954 20.4287 31.156 20.9219 30.791L26.0439 27.001L29.6494 31.8701C29.9957 32.3381 30.5068 32.6121 31.0566 32.6797C31.6065 32.7472 32.1937 32.6057 32.6865 32.2432C33.6728 31.5132 33.9104 30.1636 33.2178 29.2275L29.6143 24.3604L34.7432 20.5664C35.729 19.8389 35.9675 18.4863 35.2744 17.5527C34.5826 16.6118 33.2237 16.4478 32.2373 17.1777L27.1074 20.9727L23.5039 16.1006Z" fill="#FF3F68"/>
<path fill-rule="evenodd" clip-rule="evenodd" d="M23.5036 16.1009C22.8109 15.1649 21.45 15.0028 20.4645 15.7278C19.4808 16.4581 19.2427 17.8102 19.9333 18.7435L23.5387 23.6155L18.4167 27.4026C17.4302 28.1326 17.1919 29.4851 17.8854 30.4163C18.2313 30.8865 18.742 31.1603 19.2917 31.2278C19.844 31.2957 20.4283 31.1563 20.9216 30.7913L26.0436 27.0013L29.6491 31.8704C29.9954 32.3384 30.5065 32.6124 31.0563 32.68C31.6062 32.7475 32.1934 32.606 32.6862 32.2435C33.6725 31.5135 33.9101 30.1639 33.2175 29.2278L29.6139 24.3606L34.7428 20.5667C35.7287 19.8392 35.9672 18.4866 35.2741 17.553C34.5823 16.6121 33.2234 16.4481 32.237 17.178L27.1071 20.973L23.5036 16.1009Z" fill="white"/>
<path d="M29.1738 5.16016C41.924 5.16027 52.1641 14.4067 52.1641 25.7002L52.1562 26.2285C51.8428 37.2806 41.7246 46.2401 29.1738 46.2402C16.4236 46.2402 6.18362 36.9937 6.18359 25.7002C6.18359 14.4066 16.4236 5.16016 29.1738 5.16016Z" stroke="#474747"/>
</svg>
