<svg width="66" height="110" viewBox="0 0 66 110" fill="none" xmlns="http://www.w3.org/2000/svg">
    <style>
    @keyframes animate-subnet-1 {
        0%, 70%, 100% { transform: translateY(0); }
        20%, 50% { transform: translateY(-8px); }
    }

    @keyframes animate-subnet-3 {
        0%, 25%, 95%, 100% { transform: translateY(0); }
        45%, 75% { transform: translateY(8px); }
    }

    #subnet-1 { animation: animate-subnet-1 4s cubic-bezier(0.16, 1, 0.3, 1) infinite; }
    #subnet-3 { animation: animate-subnet-3 4s cubic-bezier(0.16, 1, 0.3, 1) infinite; }

    </style>
  <g id="subnet">
    <g id="subnet-3">
      <g id="Vector 19">
        <mask id="path-1-inside-1_545_5492" fill="white">
          <path d="M64 83.892V71H2V83.892C2 84.6055 2.38015 85.265 2.9976 85.6226L29.7422 101.113C31.7573 102.28 34.2427 102.28 36.2578 101.113L63.0024 85.6226C63.6199 85.265 64 84.6055 64 83.892Z"/>
        </mask>
        <path d="M64 83.892V71H2V83.892C2 84.6055 2.38015 85.265 2.9976 85.6226L29.7422 101.113C31.7573 102.28 34.2427 102.28 36.2578 101.113L63.0024 85.6226C63.6199 85.265 64 84.6055 64 83.892Z" fill="white" stroke="#474747" stroke-width="2" mask="url(#path-1-inside-1_545_5492)"/>
      </g>
      <g id="path">
        <mask id="path-2-inside-2_545_5492" fill="white">
          <path d="M63.1405 69.7395C64.2807 70.4362 64.2868 71.5637 63.1568 72.2588L35.155 89.4775C34.0222 90.1742 32.1816 90.1742 31.042 89.4775L2.85673 72.2588C1.71927 71.5644 1.71323 70.4362 2.84587 69.7395L30.8479 52.5208C31.978 51.8264 33.8186 51.8264 34.9562 52.5208L63.1405 69.7395Z"/>
        </mask>
        <path d="M63.1405 69.7395C64.2807 70.4362 64.2868 71.5637 63.1568 72.2588L35.155 89.4775C34.0222 90.1742 32.1816 90.1742 31.042 89.4775L2.85673 72.2588C1.71927 71.5644 1.71323 70.4362 2.84587 69.7395L30.8479 52.5208C31.978 51.8264 33.8186 51.8264 34.9562 52.5208L63.1405 69.7395Z" fill="white" stroke="#474747" stroke-width="2" mask="url(#path-2-inside-2_545_5492)"/>
      </g>
      <path id="Vector 14 (Stroke)" d="M32.5925 65.3981C32.9252 64.3449 34.049 63.7608 35.1022 64.0934C36.1554 64.4261 36.7395 65.5499 36.4069 66.6031L35.7155 68.7897L42.2204 69.5133L42.4226 69.5455C43.4136 69.7586 44.1013 70.6921 43.987 71.7213C43.8727 72.7505 42.9968 73.5102 41.9831 73.5006L41.779 73.4879L34.488 72.6774L33.4069 76.1031C33.0742 77.1563 31.9504 77.7404 30.8972 77.4078C29.844 77.0751 29.2599 75.9513 29.5925 74.8981L30.4353 72.2272L23.779 71.4879C22.6812 71.3659 21.8905 70.3777 22.0124 69.2799C22.1268 68.2507 23.0026 67.491 24.0163 67.5006L24.2204 67.5133L31.6628 68.3395L32.5925 65.3981Z" fill="white"/>
      <rect id="Rectangle 1817" x="10" y="82" width="1" height="3" rx="0.5" fill="#474747"/>
      <rect id="Rectangle 1818" x="12" y="83" width="1" height="3" rx="0.5" fill="#474747"/>
      <rect id="Rectangle 1819" x="14" y="84" width="1" height="3" rx="0.5" fill="#474747"/>
      <rect id="Rectangle 1820" x="16" y="85" width="1" height="3" rx="0.5" fill="#474747"/>
    </g>
    <g id="subnet-2">
      <g id="Vector 19_2">
        <mask id="path-8-inside-3_545_5492" fill="white">
          <path d="M64 64.892V52H2V64.892C2 65.6055 2.38015 66.265 2.9976 66.6226L29.4916 81.9679C31.6617 83.2248 34.3383 83.2248 36.5084 81.9679L63.0024 66.6226C63.6199 66.265 64 65.6055 64 64.892Z"/>
        </mask>
        <path d="M64 64.892V52H2V64.892C2 65.6055 2.38015 66.265 2.9976 66.6226L29.4916 81.9679C31.6617 83.2248 34.3383 83.2248 36.5084 81.9679L63.0024 66.6226C63.6199 66.265 64 65.6055 64 64.892Z" fill="white" stroke="#474747" stroke-width="2" mask="url(#path-8-inside-3_545_5492)"/>
      </g>
      <g id="path_2">
        <mask id="path-9-inside-4_545_5492" fill="white">
          <path d="M63.1405 50.7395C64.2807 51.4362 64.2868 52.5637 63.1568 53.2588L35.155 70.4775C34.0222 71.1742 32.1816 71.1742 31.042 70.4775L2.85673 53.2588C1.71927 52.5644 1.71323 51.4362 2.84587 50.7395L30.8479 33.5208C31.978 32.8264 33.8186 32.8264 34.9562 33.5208L63.1405 50.7395Z"/>
        </mask>
        <path d="M63.1405 50.7395C64.2807 51.4362 64.2868 52.5637 63.1568 53.2588L35.155 70.4775C34.0222 71.1742 32.1816 71.1742 31.042 70.4775L2.85673 53.2588C1.71927 52.5644 1.71323 51.4362 2.84587 50.7395L30.8479 33.5208C31.978 32.8264 33.8186 32.8264 34.9562 33.5208L63.1405 50.7395Z" fill="white" stroke="#474747" stroke-width="2" mask="url(#path-9-inside-4_545_5492)"/>
      </g>
      <path id="Vector 14 (Stroke)_2" d="M32.5925 46.3981C32.9252 45.3449 34.049 44.7608 35.1022 45.0934C36.1554 45.4261 36.7395 46.5499 36.4069 47.6031L35.7155 49.7897L42.2204 50.5133L42.4226 50.5455C43.4136 50.7586 44.1013 51.6921 43.987 52.7213C43.8727 53.7505 42.9968 54.5102 41.9831 54.5006L41.779 54.4879L34.488 53.6774L33.4069 57.1031C33.0742 58.1563 31.9504 58.7404 30.8972 58.4078C29.844 58.0751 29.2599 56.9513 29.5925 55.8981L30.4353 53.2272L23.779 52.4879C22.6812 52.3659 21.8905 51.3777 22.0124 50.2799C22.1268 49.2507 23.0026 48.491 24.0163 48.5006L24.2204 48.5133L31.6628 49.3395L32.5925 46.3981Z" fill="white"/>
      <rect id="Rectangle 1817_2" x="10" y="63" width="1" height="3" rx="0.5" fill="#474747"/>
      <rect id="Rectangle 1818_2" x="12" y="64" width="1" height="3" rx="0.5" fill="#474747"/>
      <rect id="Rectangle 1819_2" x="14" y="65" width="1" height="3" rx="0.5" fill="#474747"/>
      <rect id="Rectangle 1820_2" x="16" y="66" width="1" height="3" rx="0.5" fill="#474747"/>
    </g>
    <g id="subnet-1">
      <g id="Vector 19_3">
        <mask id="path-15-inside-5_545_5492" fill="white">
          <path d="M64 45.892V33H2V45.892C2 46.6055 2.38015 47.265 2.9976 47.6226L29.4916 62.9679C31.6617 64.2248 34.3383 64.2248 36.5084 62.9679L63.0024 47.6226C63.6199 47.265 64 46.6055 64 45.892Z"/>
        </mask>
        <path d="M64 45.892V33H2V45.892C2 46.6055 2.38015 47.265 2.9976 47.6226L29.4916 62.9679C31.6617 64.2248 34.3383 64.2248 36.5084 62.9679L63.0024 47.6226C63.6199 47.265 64 46.6055 64 45.892Z" fill="white" stroke="#474747" stroke-width="2" mask="url(#path-15-inside-5_545_5492)"/>
      </g>
      <g id="path_3">
        <mask id="path-16-inside-6_545_5492" fill="white">
          <path d="M63.1405 31.7395C64.2807 32.4362 64.2868 33.5637 63.1568 34.2588L35.155 51.4775C34.0222 52.1742 32.1816 52.1742 31.042 51.4775L2.85673 34.2588C1.71927 33.5644 1.71323 32.4362 2.84587 31.7395L30.8479 14.5208C31.978 13.8264 33.8186 13.8264 34.9562 14.5208L63.1405 31.7395Z"/>
        </mask>
        <path d="M63.1405 31.7395C64.2807 32.4362 64.2868 33.5637 63.1568 34.2588L35.155 51.4775C34.0222 52.1742 32.1816 52.1742 31.042 51.4775L2.85673 34.2588C1.71927 33.5644 1.71323 32.4362 2.84587 31.7395L30.8479 14.5208C31.978 13.8264 33.8186 13.8264 34.9562 14.5208L63.1405 31.7395Z" fill="#FFA742" stroke="#474747" stroke-width="2" mask="url(#path-16-inside-6_545_5492)"/>
      </g>
      <rect id="Rectangle 1817_3" x="10" y="44" width="1" height="3" rx="0.5" fill="#474747"/>
      <rect id="Rectangle 1818_3" x="12" y="45" width="1" height="3" rx="0.5" fill="#474747"/>
      <rect id="Rectangle 1819_3" x="14" y="46" width="1" height="3" rx="0.5" fill="#474747"/>
      <rect id="Rectangle 1820_3" x="16" y="47" width="1" height="3" rx="0.5" fill="#474747"/>
      <path id="Vector" d="M46.3694 40.8415C49.9611 38.768 49.8433 35.3261 46.1128 33.1725C44.5575 32.2746 42.0741 31.7529 38.7229 31.616C37.1385 31.5513 35.6155 31.5812 34.43 31.6279C34.6303 29.2733 34.3936 26.407 31.7981 24.9086C28.6609 23.0975 23.7737 22.7602 20.2111 23.995C19.604 24.2053 19.0334 24.4604 18.5138 24.7604C14.9221 26.8339 14.9915 30.2479 18.7221 32.4015C20.2773 33.2994 22.8091 33.8491 26.1603 33.9859C27.7447 34.0507 29.2677 34.0207 30.4532 33.974C30.2529 36.3287 30.4901 39.1952 33.0856 40.6936C36.2228 42.5047 41.11 42.842 44.6722 41.6075C45.2792 41.3972 45.8498 41.1415 46.3694 40.8415ZM34.9571 31.9245C36.2995 31.8815 37.5537 31.8834 38.6899 31.9299C41.9059 32.0611 44.2745 32.5536 45.7296 33.3937C49.2498 35.4259 49.363 38.6666 45.9826 40.6182C45.5084 40.8919 44.9772 41.1321 44.4023 41.3323C44.3307 41.3523 43.4601 41.5841 42.1734 41.5553C40.5022 41.5178 38.9179 41.0739 37.4647 40.2355C39.6997 40.7493 42.3033 40.5082 44.0477 39.5011C46.419 38.1322 46.3519 35.8665 43.899 34.4505C42.943 33.8985 41.1773 33.5666 38.6488 33.4634C37.5112 33.4172 36.2729 33.4201 34.8791 33.4732L34.3335 33.4933L34.411 31.9382L34.9571 31.9245ZM30.562 31.79C29.4382 31.8424 27.8658 31.8902 26.2669 31.8249C23.2873 31.7036 21.9602 31.2725 21.3673 30.9303C19.1302 29.6388 19.0628 27.5709 21.2224 26.3242C23.3821 25.0774 26.9487 25.1229 29.2012 26.4078C29.2824 26.4547 29.3724 26.5161 29.4703 26.5969C30.186 27.5161 30.5172 28.5147 30.5754 29.1997C30.6219 29.7508 30.5995 30.8112 30.562 31.79ZM29.9261 33.6775C28.5832 33.7201 27.3295 33.7186 26.1933 33.6721C23.0226 33.5427 20.5715 33.0268 19.1052 32.1803C17.4053 31.199 16.4508 29.9097 16.4163 28.5493C16.3819 27.1945 17.2645 25.9283 18.9006 24.9838C19.3748 24.71 19.907 24.4698 20.4809 24.2697C20.5554 24.2491 21.425 24.0178 22.7098 24.0467C24.381 24.0841 25.9653 24.5281 27.4185 25.3665C25.1835 24.8527 22.5799 25.0938 20.8356 26.1008C18.4642 27.4698 18.5313 29.7354 20.9842 31.1515C21.9402 31.7034 23.7059 32.0354 26.2344 32.1385C27.372 32.1848 28.6103 32.1818 30.0041 32.1288L30.5497 32.1081C30.5497 32.1081 30.4735 33.6401 30.4722 33.6571L29.9261 33.6775ZM34.3212 33.812C35.445 33.7596 37.0174 33.7117 38.6163 33.777C41.5959 33.8984 42.923 34.3294 43.5159 34.6717C45.753 35.9632 45.8204 38.031 43.6608 39.2778C41.5011 40.5245 37.9346 40.479 35.682 39.1942C35.6008 39.1473 35.5108 39.0859 35.4124 39.0048L35.4139 39.0067C34.6973 38.087 34.3655 37.0875 34.3073 36.4019C34.2608 35.8509 34.2842 34.791 34.3212 33.812Z" fill="white"/>
    </g>
  </g>
</svg>
