<style>
@keyframes animate-subnet-1 {
    0%, 70%, 100% { transform: translateY(0); }
    20%, 50% { transform: translateY(-8px); }
}

@keyframes animate-subnet-3 {
    0%, 25%, 95%, 100% { transform: translateY(0); }
    45%, 75% { transform: translateY(8px); }
}

#subnet-1 { animation: animate-subnet-1 4s cubic-bezier(0.16, 1, 0.3, 1) infinite; }
#subnet-3 { animation: animate-subnet-3 4s cubic-bezier(0.16, 1, 0.3, 1) infinite; }

</style>


<svg width="66" height="110" viewBox="0 0 66 110" fill="none" xmlns="http://www.w3.org/2000/svg">
<g id="subnet">
<g id="subnet-3">
<g id="Vector">
<path d="M1.52404 68.2858C1.52278 68.7316 1.81661 69.1773 2.40465 69.5164L31.3761 86.2432C31.9985 86.6019 32.7419 86.7453 33.4559 86.7483C33.4831 86.749 33.5096 86.7483 33.5361 86.7483C33.7042 86.7469 33.8724 86.7378 34.0384 86.7204C34.0684 86.7169 34.0977 86.712 34.127 86.7078C34.2505 86.6925 34.3705 86.6702 34.4905 86.6457C34.5923 86.6248 34.6914 86.5983 34.7897 86.5711C34.8846 86.5446 34.9795 86.5181 35.0702 86.4853C35.1093 86.4713 35.1484 86.4567 35.1867 86.4414C35.3325 86.3828 35.4742 86.3185 35.6039 86.2432L64.3868 69.5164C64.4272 69.4927 64.4628 69.4683 64.4998 69.4438C64.5361 69.4201 64.5738 69.3964 64.6073 69.372C64.6366 69.3504 64.6631 69.328 64.691 69.3064C64.7217 69.2813 64.7538 69.2562 64.7824 69.2304C64.7998 69.2143 64.8151 69.1983 64.8319 69.1822C64.8772 69.1376 64.9198 69.0922 64.9581 69.0462C64.9749 69.026 64.9909 69.0064 65.0063 68.9862C65.0321 68.9513 65.0551 68.9164 65.0767 68.8815C65.09 68.8599 65.1047 68.8376 65.1165 68.8152C65.1333 68.7846 65.1465 68.7532 65.1605 68.7218C65.171 68.6981 65.1821 68.6744 65.1905 68.6499C65.2016 68.62 65.2086 68.5899 65.2163 68.5606C65.2233 68.5348 65.2309 68.5097 65.2358 68.4839C65.2414 68.4525 65.2435 68.4211 65.2463 68.3897C65.2491 68.3604 65.2539 68.3318 65.2539 68.3025L65.2065 81.4776C65.2065 81.4859 65.2058 81.495 65.2058 81.5034C65.2051 81.5236 65.201 81.5439 65.1989 81.5648C65.1961 81.5962 65.194 81.6276 65.1884 81.659L65.1863 81.675C65.1821 81.6952 65.1745 81.7148 65.1689 81.735C65.1612 81.765 65.1535 81.795 65.143 81.8243L65.1382 81.8432C65.1312 81.8613 65.1207 81.8787 65.113 81.8969C65.0991 81.9283 65.0858 81.959 65.0691 81.9904C65.0649 81.9973 65.0628 82.005 65.0586 82.0127C65.0502 82.0273 65.0384 82.042 65.0293 82.0566C65.0077 82.0915 64.9847 82.1264 64.9589 82.1606C64.9512 82.1703 64.9463 82.1808 64.9386 82.1913C64.9303 82.2011 64.9191 82.2108 64.9107 82.2206C64.8724 82.2673 64.8298 82.3127 64.7845 82.3566C64.7733 82.3678 64.7649 82.3796 64.753 82.3901L64.7349 82.4054C64.7063 82.4312 64.6742 82.4564 64.6428 82.4815C64.6156 82.5031 64.5891 82.5254 64.5598 82.5464C64.5263 82.5715 64.4887 82.5945 64.4524 82.6183C64.4266 82.6357 64.4028 82.6531 64.3756 82.6699C64.3638 82.6768 64.3519 82.6838 64.3394 82.6915L35.5565 99.4183C35.3926 99.5135 35.2104 99.59 35.0228 99.6604C34.8326 99.7281 34.6413 99.7794 34.4431 99.8202C34.4061 99.8278 34.3719 99.8404 34.3349 99.8473C34.0559 99.8962 33.772 99.9227 33.4887 99.9227C33.2706 99.9283 33.0547 99.9125 32.8384 99.8878C32.6769 99.8656 32.5167 99.8434 32.3578 99.8048C32.1635 99.7621 31.9702 99.7043 31.7843 99.6332C31.7766 99.6304 31.7682 99.6283 31.7599 99.6248C31.6274 99.5723 31.4998 99.5129 31.3797 99.4469L31.3287 99.4183L2.35723 82.6915C1.76918 82.3518 1.47531 81.9059 1.47657 81.4601L1.52404 68.2858Z" fill="white"/>
<path d="M64.3704 67.0687C65.5424 67.7454 65.5484 68.8411 64.3868 69.5164L35.6039 86.2432C34.4396 86.9199 32.5474 86.9199 31.3761 86.2432L2.40465 69.5164C1.23546 68.8418 1.22957 67.7454 2.39381 67.0687L31.177 50.3419C32.3385 49.6673 34.2306 49.6673 35.3998 50.3419L64.3704 67.0687Z" fill="white"/>
<path d="M2.40465 69.5164C1.81661 69.1773 1.52278 68.7316 1.52404 68.2858L1.47657 81.4601C1.47531 81.9059 1.76918 82.3518 2.35723 82.6915L31.3287 99.4183L31.3797 99.4469C31.4998 99.5129 31.6274 99.5723 31.7599 99.6248C31.7682 99.6283 31.7766 99.6304 31.7843 99.6332C31.9702 99.7043 32.1635 99.7621 32.3578 99.8048C32.5167 99.8434 32.6769 99.8656 32.8384 99.8878C33.0547 99.9125 33.2706 99.9283 33.4887 99.9227C33.772 99.9227 34.0559 99.8962 34.3349 99.8473C34.3719 99.8404 34.4061 99.8278 34.4431 99.8202C34.6413 99.7794 34.8326 99.7281 35.0228 99.6604C35.2104 99.59 35.3926 99.5135 35.5565 99.4183L64.3394 82.6915C64.3519 82.6838 64.3638 82.6768 64.3756 82.6699C64.4028 82.6531 64.4266 82.6357 64.4524 82.6183C64.4887 82.5945 64.5263 82.5715 64.5598 82.5464C64.5891 82.5254 64.6156 82.5031 64.6428 82.4815C64.6742 82.4564 64.7063 82.4312 64.7349 82.4054L64.753 82.3901C64.7649 82.3796 64.7733 82.3678 64.7845 82.3566C64.8298 82.3127 64.8724 82.2673 64.9107 82.2206C64.9191 82.2108 64.9303 82.2011 64.9386 82.1913C64.9463 82.1808 64.9512 82.1703 64.9589 82.1606C64.9847 82.1264 65.0077 82.0915 65.0293 82.0566C65.0384 82.042 65.0502 82.0273 65.0586 82.0127C65.0628 82.005 65.0649 81.9973 65.0691 81.9904C65.0858 81.959 65.0991 81.9283 65.113 81.8969C65.1207 81.8787 65.1312 81.8613 65.1382 81.8432L65.143 81.8243C65.1535 81.795 65.1612 81.765 65.1689 81.735C65.1745 81.7148 65.1821 81.6952 65.1863 81.675L65.1884 81.659C65.194 81.6276 65.1961 81.5962 65.1989 81.5648C65.201 81.5439 65.2051 81.5236 65.2058 81.5034C65.2058 81.495 65.2065 81.4859 65.2065 81.4776L65.2539 68.3025C65.2539 68.3318 65.2491 68.3604 65.2463 68.3897C65.2435 68.4211 65.2414 68.4525 65.2358 68.4839C65.2309 68.5097 65.2233 68.5348 65.2163 68.5606C65.2086 68.5899 65.2016 68.62 65.1905 68.6499C65.1821 68.6744 65.171 68.6981 65.1605 68.7218C65.1465 68.7532 65.1333 68.7846 65.1165 68.8152C65.1047 68.8376 65.09 68.8599 65.0767 68.8815C65.0551 68.9164 65.0321 68.9513 65.0063 68.9862C64.9909 69.0064 64.9749 69.026 64.9581 69.0462C64.9198 69.0922 64.8772 69.1376 64.8319 69.1822C64.8151 69.1983 64.7998 69.2143 64.7824 69.2304C64.7538 69.2562 64.7217 69.2813 64.691 69.3064C64.6631 69.328 64.6366 69.3504 64.6073 69.372C64.5738 69.3964 64.5361 69.4201 64.4998 69.4438C64.4628 69.4683 64.4272 69.4927 64.3868 69.5164M2.40465 69.5164L31.3761 86.2432M2.40465 69.5164C1.23546 68.8418 1.22957 67.7454 2.39381 67.0687L31.177 50.3419C32.3385 49.6673 34.2306 49.6673 35.3998 50.3419L64.3704 67.0687C65.5424 67.7454 65.5484 68.8411 64.3868 69.5164M31.3761 86.2432C31.9985 86.6019 32.7419 86.7453 33.4559 86.7483C33.4831 86.749 33.5096 86.7483 33.5361 86.7483C33.7042 86.7469 33.8724 86.7378 34.0384 86.7204C34.0684 86.7169 34.0977 86.712 34.127 86.7078C34.2505 86.6925 34.3705 86.6702 34.4905 86.6457C34.5923 86.6248 34.6914 86.5983 34.7897 86.5711C34.8846 86.5446 34.9795 86.5181 35.0702 86.4853C35.1093 86.4713 35.1484 86.4567 35.1867 86.4414C35.3325 86.3828 35.4742 86.3185 35.6039 86.2432M31.3761 86.2432C32.5474 86.9199 34.4396 86.9199 35.6039 86.2432M35.6039 86.2432L64.3868 69.5164" stroke="#474747"/>
</g>
<g id="Union">
<path d="M18.3789 84.5928C18.4457 84.592 18.5145 84.6086 18.5791 84.6465C18.6974 84.7161 18.7705 84.8433 18.7705 84.9805V87.1475C18.7705 87.3721 18.5872 87.5329 18.3867 87.5352C18.3199 87.536 18.2511 87.5194 18.1865 87.4815C18.0684 87.4119 17.9961 87.2846 17.9961 87.1475V84.9805C17.9961 84.756 18.1786 84.5953 18.3789 84.5928Z" fill="#474747"/>
<path d="M16.498 83.9834C16.5638 83.7491 16.8415 83.623 17.0674 83.7559C17.0837 83.7655 17.0968 83.7793 17.1113 83.791C17.1468 83.8195 17.178 83.8515 17.2012 83.8897C17.2189 83.919 17.2327 83.9503 17.2422 83.9834C17.252 84.0177 17.2578 84.0533 17.2578 84.0899V86.2578C17.2578 86.5572 16.9329 86.7435 16.6748 86.5918C16.6157 86.5571 16.5681 86.5077 16.5352 86.4502C16.5253 86.433 16.5189 86.4141 16.5117 86.3955C16.495 86.352 16.4834 86.306 16.4834 86.2578V84.0899C16.4834 84.0525 16.4887 84.0168 16.498 83.9834Z" fill="#474747"/>
<path d="M14.9707 83.1992C14.9707 82.9022 15.2898 82.7173 15.5469 82.8623C15.549 82.8635 15.5516 82.864 15.5537 82.8653C15.6719 82.9348 15.7451 83.0621 15.7451 83.1992V85.3672C15.745 85.6665 15.4192 85.8529 15.1611 85.7012C15.0429 85.6317 14.9708 85.5043 14.9707 85.3672V83.1992Z" fill="#474747"/>
<path d="M13.8408 81.9229C13.9078 81.922 13.9764 81.9395 14.041 81.9776C14.1002 82.0124 14.1478 82.0615 14.1807 82.1192C14.2135 82.1766 14.2323 82.2422 14.2324 82.3106V84.4785C14.2322 84.7778 13.9064 84.9633 13.6484 84.8116C13.5304 84.742 13.4581 84.6155 13.458 84.4785V82.3106C13.4581 82.2359 13.4782 82.1684 13.5127 82.1114C13.5795 82.0005 13.6993 81.9298 13.8281 81.9239C13.8324 81.9237 13.8366 81.9229 13.8408 81.9229Z" fill="#474747"/>
</g>
</g>
<g id="subnet-2">
<g id="Vector_2">
<path d="M1.52404 48.6169C1.52278 49.0627 1.81661 49.5085 2.40465 49.8476L31.3761 66.5744C31.9985 66.9331 32.7419 67.0765 33.4559 67.0795C33.4831 67.0802 33.5096 67.0795 33.5361 67.0795C33.7042 67.0781 33.8724 67.069 34.0384 67.0516C34.0684 67.0481 34.0977 67.0432 34.127 67.039C34.2505 67.0236 34.3705 67.0013 34.4905 66.9769C34.5923 66.956 34.6914 66.9295 34.7897 66.9023C34.8846 66.8758 34.9795 66.8493 35.0702 66.8165C35.1093 66.8025 35.1484 66.7879 35.1867 66.7725C35.3325 66.7139 35.4742 66.6497 35.6039 66.5744L64.3868 49.8476C64.4272 49.8239 64.4628 49.7994 64.4998 49.775C64.5361 49.7513 64.5738 49.7276 64.6073 49.7032C64.6366 49.6815 64.6631 49.6592 64.691 49.6376C64.7217 49.6125 64.7538 49.5873 64.7824 49.5615C64.7998 49.5455 64.8151 49.5294 64.8319 49.5134C64.8772 49.4688 64.9198 49.4234 64.9581 49.3774C64.9749 49.3571 64.9909 49.3376 65.0063 49.3173C65.0321 49.2825 65.0551 49.2476 65.0767 49.2127C65.09 49.1911 65.1047 49.1687 65.1165 49.1464C65.1333 49.1157 65.1465 49.0843 65.1605 49.053C65.171 49.0292 65.1821 49.0055 65.1905 48.9811C65.2016 48.9511 65.2086 48.9211 65.2163 48.8918C65.2233 48.866 65.2309 48.8409 65.2358 48.8151C65.2414 48.7837 65.2435 48.7523 65.2463 48.7209C65.2491 48.6916 65.2539 48.663 65.2539 48.6337L65.2065 61.8087C65.2065 61.8171 65.2058 61.8262 65.2058 61.8346C65.2051 61.8548 65.201 61.875 65.1989 61.896C65.1961 61.9273 65.194 61.9587 65.1884 61.9901L65.1863 62.0062C65.1821 62.0264 65.1745 62.0459 65.1689 62.0662C65.1612 62.0962 65.1535 62.1262 65.143 62.1555L65.1382 62.1743C65.1312 62.1925 65.1207 62.2099 65.113 62.228C65.0991 62.2594 65.0858 62.2902 65.0691 62.3215C65.0649 62.3285 65.0628 62.3362 65.0586 62.3438C65.0502 62.3585 65.0384 62.3732 65.0293 62.3878C65.0077 62.4227 64.9847 62.4576 64.9589 62.4917C64.9512 62.5015 64.9463 62.512 64.9386 62.5225C64.9303 62.5322 64.9191 62.542 64.9107 62.5517C64.8724 62.5985 64.8298 62.6439 64.7845 62.6878C64.7733 62.699 64.7649 62.7108 64.753 62.7213L64.7349 62.7366C64.7063 62.7624 64.6742 62.7876 64.6428 62.8127C64.6156 62.8343 64.5891 62.8566 64.5598 62.8775C64.5263 62.9026 64.4887 62.9257 64.4524 62.9494C64.4266 62.9669 64.4028 62.9843 64.3756 63.001C64.3638 63.008 64.3519 63.015 64.3394 63.0227L35.5565 79.7495C35.3926 79.8446 35.2104 79.9212 35.0228 79.9915C34.8326 80.0592 34.6413 80.1106 34.4431 80.1513C34.4061 80.159 34.3719 80.1715 34.3349 80.1785C34.0559 80.2273 33.772 80.2539 33.4887 80.2539C33.2706 80.2595 33.0547 80.2437 32.8384 80.219C32.6769 80.1968 32.5167 80.1746 32.3578 80.1359C32.1635 80.0933 31.9702 80.0354 31.7843 79.9644C31.7766 79.9616 31.7682 79.9595 31.7599 79.956C31.6274 79.9035 31.4998 79.844 31.3797 79.7781L31.3287 79.7495L2.35723 63.0227C1.76918 62.6829 1.47531 62.2371 1.47657 61.7913L1.52404 48.6169Z" fill="white"/>
<path d="M64.3704 47.4008C65.5424 48.0775 65.5484 49.1723 64.3868 49.8476L35.6039 66.5744C34.4396 67.2511 32.5474 67.2511 31.3761 66.5744L2.40465 49.8476C1.23546 49.1729 1.22957 48.0775 2.39381 47.4008L31.177 30.6739C32.3385 29.9993 34.2306 29.9993 35.3998 30.6739L64.3704 47.4008Z" fill="white"/>
<path d="M2.40465 49.8476C1.81661 49.5085 1.52278 49.0627 1.52404 48.6169L1.47657 61.7913C1.47531 62.2371 1.76918 62.6829 2.35723 63.0227L31.3287 79.7495L31.3797 79.7781C31.4998 79.844 31.6274 79.9035 31.7599 79.956C31.7682 79.9595 31.7766 79.9616 31.7843 79.9644C31.9702 80.0354 32.1635 80.0933 32.3578 80.1359C32.5167 80.1746 32.6769 80.1968 32.8384 80.219C33.0547 80.2437 33.2706 80.2595 33.4887 80.2539C33.772 80.2539 34.0559 80.2273 34.3349 80.1785C34.3719 80.1715 34.4061 80.159 34.4431 80.1513C34.6413 80.1106 34.8326 80.0592 35.0228 79.9915C35.2104 79.9212 35.3926 79.8446 35.5565 79.7495L64.3394 63.0227C64.3519 63.015 64.3638 63.008 64.3756 63.001C64.4028 62.9843 64.4266 62.9669 64.4524 62.9494C64.4887 62.9257 64.5263 62.9026 64.5598 62.8775C64.5891 62.8566 64.6156 62.8343 64.6428 62.8127C64.6742 62.7876 64.7063 62.7624 64.7349 62.7366L64.753 62.7213C64.7649 62.7108 64.7733 62.699 64.7845 62.6878C64.8298 62.6439 64.8724 62.5985 64.9107 62.5517C64.9191 62.542 64.9303 62.5322 64.9386 62.5225C64.9463 62.512 64.9512 62.5015 64.9589 62.4917C64.9847 62.4576 65.0077 62.4227 65.0293 62.3878C65.0384 62.3732 65.0502 62.3585 65.0586 62.3438C65.0628 62.3362 65.0649 62.3285 65.0691 62.3215C65.0858 62.2902 65.0991 62.2594 65.113 62.228C65.1207 62.2099 65.1312 62.1925 65.1382 62.1743L65.143 62.1555C65.1535 62.1262 65.1612 62.0962 65.1689 62.0662C65.1745 62.0459 65.1821 62.0264 65.1863 62.0062L65.1884 61.9901C65.194 61.9587 65.1961 61.9273 65.1989 61.896C65.201 61.875 65.2051 61.8548 65.2058 61.8346C65.2058 61.8262 65.2065 61.8171 65.2065 61.8087L65.2539 48.6337C65.2539 48.663 65.2491 48.6916 65.2463 48.7209C65.2435 48.7523 65.2414 48.7837 65.2358 48.8151C65.2309 48.8409 65.2233 48.866 65.2163 48.8918C65.2086 48.9211 65.2016 48.9511 65.1905 48.9811C65.1821 49.0055 65.171 49.0292 65.1605 49.053C65.1465 49.0843 65.1333 49.1157 65.1165 49.1464C65.1047 49.1687 65.09 49.1911 65.0767 49.2127C65.0551 49.2476 65.0321 49.2825 65.0063 49.3173C64.9909 49.3376 64.9749 49.3571 64.9581 49.3774C64.9198 49.4234 64.8772 49.4688 64.8319 49.5134C64.8151 49.5294 64.7998 49.5455 64.7824 49.5615C64.7538 49.5873 64.7217 49.6125 64.691 49.6376C64.6631 49.6592 64.6366 49.6815 64.6073 49.7032C64.5738 49.7276 64.5361 49.7513 64.4998 49.775C64.4628 49.7994 64.4272 49.8239 64.3868 49.8476M2.40465 49.8476L31.3761 66.5744M2.40465 49.8476C1.23546 49.1729 1.22957 48.0775 2.39381 47.4008L31.177 30.6739C32.3385 29.9993 34.2306 29.9993 35.3998 30.6739L64.3704 47.4008C65.5424 48.0775 65.5484 49.1723 64.3868 49.8476M31.3761 66.5744C31.9985 66.9331 32.7419 67.0765 33.4559 67.0795C33.4831 67.0802 33.5096 67.0795 33.5361 67.0795C33.7042 67.0781 33.8724 67.069 34.0384 67.0516C34.0684 67.0481 34.0977 67.0432 34.127 67.039C34.2505 67.0236 34.3705 67.0013 34.4905 66.9769C34.5923 66.956 34.6914 66.9295 34.7897 66.9023C34.8846 66.8758 34.9795 66.8493 35.0702 66.8165C35.1093 66.8025 35.1484 66.7879 35.1867 66.7725C35.3325 66.7139 35.4742 66.6497 35.6039 66.5744M31.3761 66.5744C32.5474 67.2511 34.4396 67.2511 35.6039 66.5744M35.6039 66.5744L64.3868 49.8476" stroke="#474747"/>
</g>
<g id="Union_2">
<path d="M18.3789 64.5908C18.4457 64.59 18.5145 64.6066 18.5791 64.6446C18.6974 64.7141 18.7705 64.8413 18.7705 64.9785V67.1455C18.7705 67.3702 18.5872 67.531 18.3867 67.5332C18.3199 67.534 18.2511 67.5175 18.1865 67.4795C18.0684 67.4099 17.9961 67.2826 17.9961 67.1455V64.9785C17.9961 64.7541 18.1786 64.5933 18.3789 64.5908Z" fill="#474747"/>
<path d="M16.498 63.9815C16.5638 63.7472 16.8415 63.621 17.0674 63.7539C17.0837 63.7636 17.0968 63.7774 17.1113 63.7891C17.1468 63.8175 17.178 63.8495 17.2012 63.8877C17.2189 63.917 17.2327 63.9484 17.2422 63.9815C17.252 64.0157 17.2578 64.0513 17.2578 64.0879V66.2559C17.2578 66.5553 16.9329 66.7415 16.6748 66.5899C16.6157 66.5551 16.5681 66.5058 16.5352 66.4483C16.5253 66.431 16.5189 66.4122 16.5117 66.3936C16.495 66.35 16.4834 66.304 16.4834 66.2559V64.0879C16.4834 64.0506 16.4887 64.0149 16.498 63.9815Z" fill="#474747"/>
<path d="M14.9707 63.1973C14.9707 62.9003 15.2898 62.7153 15.5469 62.8604C15.549 62.8616 15.5516 62.8621 15.5537 62.8633C15.6719 62.9329 15.7451 63.0601 15.7451 63.1973V65.3653C15.745 65.6646 15.4192 65.851 15.1611 65.6992C15.0429 65.6297 14.9708 65.5024 14.9707 65.3653V63.1973Z" fill="#474747"/>
<path d="M13.8408 61.9209C13.9078 61.9201 13.9764 61.9375 14.041 61.9756C14.1002 62.0105 14.1478 62.0595 14.1807 62.1172C14.2135 62.1746 14.2323 62.2403 14.2324 62.3086V64.4766C14.2322 64.7758 13.9064 64.9614 13.6484 64.8096C13.5304 64.7401 13.4581 64.6136 13.458 64.4766V62.3086C13.4581 62.2339 13.4782 62.1665 13.5127 62.1094C13.5795 61.9986 13.6993 61.9278 13.8281 61.9219C13.8324 61.9217 13.8366 61.921 13.8408 61.9209Z" fill="#474747"/>
</g>
</g>
<g id="subnet-1">
<path id="Union_3" d="M1.49962 28.9492C1.49837 29.395 1.7922 29.8408 2.38023 30.1798L31.3517 46.9066C31.9741 47.2654 32.7175 47.4087 33.4314 47.4117C33.4586 47.4124 33.4852 47.4117 33.5117 47.4117C33.6798 47.4103 33.848 47.4013 34.014 47.3838C34.044 47.3804 34.0733 47.3755 34.1026 47.3713C34.2261 47.3559 34.3461 47.3336 34.4661 47.3092C34.5679 47.2883 34.667 47.2617 34.7653 47.2345C34.8602 47.208 34.9551 47.1815 35.0458 47.1487C35.0849 47.1348 35.1239 47.1201 35.1623 47.1048C35.3081 47.0462 35.4498 46.982 35.5795 46.9066L64.3624 30.1798C64.4028 30.1561 64.4384 30.1317 64.4754 30.1073C64.5117 30.0836 64.5494 30.0599 64.5828 30.0354C64.6121 30.0138 64.6386 29.9915 64.6665 29.9698C64.6972 29.9447 64.7294 29.9196 64.758 29.8938C64.7754 29.8778 64.7907 29.8617 64.8075 29.8457C64.8528 29.801 64.8954 29.7557 64.9337 29.7096C64.9505 29.6894 64.9665 29.6698 64.9819 29.6496C65.0077 29.6147 65.0307 29.5798 65.0523 29.545C65.0656 29.5233 65.0803 29.501 65.0921 29.4787C65.1089 29.448 65.1221 29.4166 65.1361 29.3852C65.1465 29.3615 65.1577 29.3378 65.1661 29.3134C65.1772 29.2834 65.1842 29.2534 65.1919 29.2241C65.1989 29.1983 65.2065 29.1731 65.2114 29.1473C65.217 29.1159 65.2191 29.0845 65.2219 29.0532C65.2247 29.0238 65.2295 28.9952 65.2295 28.9659L65.2236 30.6128L65.2177 32.2597L65.2058 35.5535L65.1821 42.141C65.1821 42.1494 65.1814 42.1585 65.1814 42.1669C65.1807 42.1871 65.1765 42.2073 65.1744 42.2282C65.1717 42.2596 65.1696 42.291 65.164 42.3224L65.1619 42.3384C65.1577 42.3587 65.15 42.3782 65.1445 42.3984C65.1368 42.4284 65.1291 42.4585 65.1186 42.4878L65.1137 42.5066C65.1068 42.5247 65.0963 42.5422 65.0886 42.5603C65.0747 42.5917 65.0614 42.6224 65.0447 42.6538C65.0405 42.6608 65.0384 42.6684 65.0342 42.6761C65.0258 42.6907 65.014 42.7054 65.0049 42.7201C64.9833 42.755 64.9603 42.7898 64.9344 42.824C64.9268 42.8338 64.9219 42.8443 64.9142 42.8547C64.9058 42.8645 64.8947 42.8742 64.8863 42.884C64.8479 42.9308 64.8054 42.9761 64.7601 43.0201C64.7489 43.0312 64.7405 43.0431 64.7286 43.0536L64.7105 43.0689C64.6819 43.0947 64.6498 43.1199 64.6184 43.145C64.5912 43.1666 64.5647 43.1889 64.5354 43.2098C64.5019 43.2349 64.4642 43.258 64.428 43.2817C64.4022 43.2991 64.3784 43.3166 64.3512 43.3333C64.3394 43.3403 64.3275 43.3473 64.3149 43.3549L35.532 60.0818C35.3682 60.1769 35.1859 60.2535 34.9983 60.3238C34.8082 60.3915 34.6168 60.4429 34.4186 60.4836C34.3817 60.4913 34.3474 60.5038 34.3105 60.5108C34.0314 60.5596 33.7475 60.5862 33.4642 60.5862C33.2462 60.5917 33.0303 60.576 32.814 60.5513C32.6525 60.5291 32.4922 60.5069 32.3334 60.4682C32.139 60.4256 31.9458 60.3677 31.7599 60.2966C31.7522 60.2938 31.7438 60.2917 31.7355 60.2883C31.603 60.2358 31.4753 60.1763 31.3553 60.1104L31.3043 60.0818L2.33281 43.355C1.74477 43.0152 1.4509 42.5694 1.45215 42.1236L1.49962 28.9492Z" fill="white" stroke="#474747"/>
<path id="Subtract" fill-rule="evenodd" clip-rule="evenodd" d="M33.2608 10C34.0897 10 34.9477 10.181 35.626 10.5723L64.5957 27.2998L64.8389 27.4541C65.3788 27.8362 65.7256 28.3557 65.7295 28.9531C65.7334 29.5519 65.3917 30.073 64.8555 30.4561L64.6143 30.6123L35.8311 47.3389C35.1546 47.732 34.2984 47.914 33.4688 47.9141C32.7424 47.9141 31.9949 47.7745 31.3643 47.4766L31.1016 47.3398L2.13088 30.6123C1.45535 30.2225 1.00337 29.642 1.00002 28.959C0.996789 28.2749 1.44414 27.6916 2.11818 27.2998L30.9014 10.5732L31.1631 10.4355C31.7903 10.1383 32.5358 10.0001 33.2608 10Z" fill="white"/>
<g id="Subtract_2">
<mask id="path-9-inside-1_411_4445" fill="white">
<path fill-rule="evenodd" clip-rule="evenodd" d="M33.2608 10C34.0897 10 34.9477 10.181 35.626 10.5723L64.5957 27.2998L64.8389 27.4541C65.3788 27.8362 65.7256 28.3557 65.7295 28.9531C65.7334 29.5519 65.3917 30.073 64.8555 30.4561L64.6143 30.6123L35.8311 47.3389C35.1546 47.732 34.2984 47.914 33.4688 47.9141C32.7424 47.9141 31.9949 47.7745 31.3643 47.4766L31.1016 47.3398L2.13088 30.6123C1.45535 30.2225 1.00337 29.642 1.00002 28.959C0.996789 28.2749 1.44414 27.6916 2.11818 27.2998L30.9014 10.5732L31.1631 10.4355C31.7903 10.1383 32.5358 10.0001 33.2608 10Z"/>
</mask>
<path fill-rule="evenodd" clip-rule="evenodd" d="M33.2608 10C34.0897 10 34.9477 10.181 35.626 10.5723L64.5957 27.2998L64.8389 27.4541C65.3788 27.8362 65.7256 28.3557 65.7295 28.9531C65.7334 29.5519 65.3917 30.073 64.8555 30.4561L64.6143 30.6123L35.8311 47.3389C35.1546 47.732 34.2984 47.914 33.4688 47.9141C32.7424 47.9141 31.9949 47.7745 31.3643 47.4766L31.1016 47.3398L2.13088 30.6123C1.45535 30.2225 1.00337 29.642 1.00002 28.959C0.996789 28.2749 1.44414 27.6916 2.11818 27.2998L30.9014 10.5732L31.1631 10.4355C31.7903 10.1383 32.5358 10.0001 33.2608 10Z" fill="#FFA742" stroke="#474747" stroke-width="2" mask="url(#path-9-inside-1_411_4445)"/>
</g>
<g id="Union_4">
<path d="M17.9727 45.3097C17.9727 45.0103 18.2976 44.8242 18.5557 44.9757C18.6739 45.0453 18.7471 45.1725 18.7471 45.3097V47.4767C18.7471 47.7762 18.4212 47.9627 18.1631 47.8107C18.045 47.7411 17.9727 47.6138 17.9727 47.4767V45.3097Z" fill="#474747"/>
<path d="M16.46 44.4191C16.46 44.1196 16.7858 43.9332 17.0439 44.0851C17.0708 44.1009 17.0944 44.1205 17.1162 44.1417C17.1905 44.2137 17.2344 44.313 17.2344 44.4191V46.586C17.2344 46.8855 16.9095 47.0719 16.6514 46.92C16.6217 46.9026 16.5948 46.8815 16.5713 46.8575C16.5011 46.7861 16.46 46.6889 16.46 46.586V44.4191Z" fill="#474747"/>
<path d="M14.9473 43.5284C14.9473 43.229 15.2722 43.0427 15.5303 43.1944C15.617 43.2455 15.6781 43.3278 15.7051 43.422C15.7149 43.4563 15.7217 43.4918 15.7217 43.5284V45.6964C15.7216 45.9958 15.3958 46.1822 15.1377 46.0304C15.1209 46.0205 15.1076 46.0063 15.0928 45.9942C15.0663 45.9728 15.0432 45.9491 15.0234 45.922C14.9762 45.8569 14.9473 45.7795 14.9473 45.6964V43.5284Z" fill="#474747"/>
<path d="M13.9072 42.2608C13.9424 42.269 13.9769 42.2828 14.0107 42.3019C14.0128 42.303 14.0155 42.3036 14.0176 42.3048C14.0444 42.3206 14.068 42.3402 14.0898 42.3614C14.1642 42.4335 14.208 42.5327 14.208 42.6388V44.8058C14.2079 45.0302 14.0255 45.1911 13.8252 45.1935C13.7815 45.194 13.738 45.1836 13.6943 45.1681C13.6713 45.1599 13.6473 45.1528 13.625 45.1398C13.5327 45.0854 13.4692 44.9955 13.4453 44.8937C13.4386 44.8651 13.4336 44.8358 13.4336 44.8058V42.6378C13.4338 42.3799 13.6754 42.2069 13.9072 42.2608Z" fill="#474747"/>
</g>
<g id="Group">
<path id="Vector_3" d="M46.7929 36.9126C50.3846 34.8391 50.296 31.414 46.6013 29.2811C45.061 28.3919 42.5939 27.8795 39.2598 27.7526C37.6836 27.6926 36.1677 27.7266 34.9875 27.7764C35.2064 25.4325 34.9947 22.5806 32.4242 21.0966C29.3172 19.3029 24.4562 18.9808 20.9004 20.2196C20.9038 20.2187 20.9081 20.2173 20.9124 20.216C20.9081 20.2173 20.9043 20.2184 20.9004 20.2196C20.2946 20.4305 19.7246 20.686 19.2049 20.986C15.6132 23.0595 15.6539 26.4569 19.3486 28.5898C20.8889 29.4791 23.4039 30.0191 26.738 30.146C28.3142 30.206 29.8301 30.172 31.0103 30.1222C30.7914 32.4661 31.0036 35.3182 33.5741 36.8022C36.6811 38.5959 41.5421 38.918 45.0974 37.6796C45.7033 37.4686 46.2732 37.2131 46.7929 36.9131L46.7929 36.9126ZM35.5096 28.07C36.8459 28.0236 38.0941 28.0219 39.2244 28.065C42.4238 28.1867 44.777 28.6703 46.2181 29.5023C49.7045 31.515 49.7902 34.7398 46.4097 36.6914C45.9356 36.9651 45.4049 37.2056 44.8311 37.4064C44.7597 37.4266 43.8914 37.6597 42.6111 37.6345C40.9482 37.6019 39.3753 37.1644 37.936 36.3341C40.156 36.8393 42.7491 36.5921 44.4934 35.5851C46.8647 34.2161 46.8168 31.9615 44.3876 30.5591C43.4407 30.0124 41.6863 29.687 39.1708 29.5913C38.039 29.5485 36.8066 29.5548 35.4191 29.6115L34.8759 29.6331L34.966 28.0852L35.5091 28.0703L35.5096 28.07ZM31.1367 27.9483C30.0179 28.0036 28.4526 28.0556 26.862 27.9951C23.8978 27.8825 22.5806 27.4573 21.9934 27.1183C19.7778 25.8392 19.7279 23.7815 21.8876 22.5347C24.0472 21.288 27.5963 21.3234 29.8273 22.5958C29.9077 22.6423 29.9968 22.7031 30.0936 22.7833C30.7981 23.696 31.1195 24.6889 31.1717 25.3705C31.2134 25.9188 31.1822 26.9737 31.1367 27.9478L31.1367 27.9483ZM30.4882 29.8286C29.1514 29.8747 27.9038 29.8767 26.7734 29.8335C23.619 29.7135 21.184 29.207 19.7318 28.3686C18.0482 27.3967 17.109 26.1162 17.086 24.7625C17.063 23.4143 17.952 22.1518 19.5881 21.2072C20.0623 20.9335 20.5939 20.6929 21.1667 20.4922C21.241 20.4714 22.1084 20.2389 23.3867 20.2641C25.0496 20.2967 26.6225 20.7341 28.0618 21.5645C25.8418 21.0593 23.2488 21.3065 21.5044 22.3135C19.1331 23.6825 19.181 25.9371 21.6103 27.3395C22.5572 27.8861 24.3116 28.2116 26.8271 28.3072C27.9588 28.3501 29.1912 28.3437 30.5787 28.2871L31.1219 28.2649C31.1219 28.2649 31.0333 29.7899 31.0318 29.8067L30.4877 29.8283L30.4882 29.8286ZM34.8611 29.9502C35.9799 29.8949 37.5452 29.8429 39.1358 29.9035C42.1001 30.016 43.4172 30.4413 44.0044 30.7803C46.2201 32.0594 46.2699 34.1171 44.1103 35.3639C41.9506 36.6106 38.4016 36.5752 36.1706 35.3028C36.0901 35.2563 36.001 35.1955 35.9038 35.115C35.9047 35.1156 35.9047 35.1161 35.9052 35.1169C35.1997 34.2037 34.8779 33.2099 34.8257 32.5278C34.784 31.9795 34.8151 30.9246 34.8601 29.9502L34.8611 29.9502ZM45.0878 37.6818C45.0912 37.681 45.0945 37.6796 45.0974 37.679C45.095 37.6798 45.0912 37.681 45.0878 37.6818Z" fill="white"/>
</g>
</g>
</g>
</svg>
